<?xml version="1.0" encoding="UTF-8" standalone="no"?>
<!DOCTYPE svg PUBLIC "-//W3C//DTD SVG 1.1//EN"
 "http://www.w3.org/Graphics/SVG/1.1/DTD/svg11.dtd">
<!-- Generated by graphviz version 2.44.1 (20201121.0304)
 -->
<!-- Title: G Pages: 1 -->
<svg width="792pt" height="815pt"
 viewBox="0.00 0.00 792.00 815.00" xmlns="http://www.w3.org/2000/svg" xmlns:xlink="http://www.w3.org/1999/xlink"><style>
  * {
    fill: transparent !important;
    stroke: rgb(0, 37, 73) !important;
    stroke-width: 1 !important;
  }
  polygon:not(.cluster *, .node *, .edge *, text) {
    stroke: transparent !important;
  }
  text {
    font-size: 10px !important;
    font-family: monospace !important;
    fill: rgb(0, 37, 73) !important;
    stroke: transparent !important;
    transform: translateY(-0.5em);
  }
</style>
<g id="graph0" class="graph" transform="scale(1 1) rotate(0) translate(4 811.45)">
<title>G</title>
<polygon fill="#fdfdfd" stroke="none" points="-4,4 -4,-811.45 787.95,-811.45 787.95,4 -4,4"/>
<text xml:space="preserve" text-anchor="middle" x="391.98" y="4.5" font-family="Arial" font-size="20.00">E2B System Architecture Overview</text>
<!-- User_Developer -->
<g id="node1" class="node">
<title>User_Developer</title>
<polygon fill="lightblue" stroke="black" points="439.7,-797.15 276.5,-797.15 276.5,-757.85 439.7,-757.85 439.7,-797.15"/>
<text xml:space="preserve" text-anchor="middle" x="358.1" y="-769.45" font-family="Arial" font-size="14.00" fill="white">User / Developer</text>
</g>
<!-- E2B_CLI -->
<g id="node2" class="node">
<title>E2B_CLI</title>
<polygon fill="lightblue" stroke="black" points="595.95,-564.15 500.25,-564.15 500.25,-524.85 595.95,-524.85 595.95,-564.15"/>
<text xml:space="preserve" text-anchor="middle" x="548.1" y="-536.45" font-family="Arial" font-size="14.00">E2B CLI</text>
</g>
<!-- User_Developer&#45;&gt;E2B_CLI -->
<g id="edge1" class="edge">
<title>User_Developer&#45;&gt;E2B_CLI</title>
<path fill="none" stroke="#333333" stroke-width="2" d="M435.95,-757.5C435.95,-703.1 435.95,-556.5 435.95,-556.5 435.95,-556.5 488.86,-556.5 488.86,-556.5"/>
<polygon fill="#333333" stroke="#333333" stroke-width="2" points="488.86,-559.3 496.86,-556.5 488.86,-553.7 488.86,-559.3"/>
</g>
<!-- E2B_Web_Application -->
<g id="node3" class="node">
<title>E2B_Web_Application</title>
<polygon fill="lightblue" stroke="black" points="215.95,-564.15 30.25,-564.15 30.25,-524.85 215.95,-524.85 215.95,-564.15"/>
<text xml:space="preserve" text-anchor="middle" x="123.1" y="-536.45" font-family="Arial" font-size="14.00">E2B Web Application</text>
</g>
<!-- User_Developer&#45;&gt;E2B_Web_Application -->
<g id="edge2" class="edge">
<title>User_Developer&#45;&gt;E2B_Web_Application</title>
<path fill="none" stroke="#333333" stroke-width="2" d="M284,-757.5C284,-703.1 284,-556.5 284,-556.5 284,-556.5 227.26,-556.5 227.26,-556.5"/>
<polygon fill="#333333" stroke="#333333" stroke-width="2" points="227.26,-553.7 219.26,-556.5 227.26,-559.3 227.26,-553.7"/>
</g>
<!-- E2B_SDKs -->
<g id="node4" class="node">
<title>E2B_SDKs</title>
<polygon fill="lightblue" stroke="black" points="428.45,-569.4 287.75,-569.4 287.75,-519.6 428.45,-519.6 428.45,-569.4"/>
<text xml:space="preserve" text-anchor="middle" x="358.1" y="-541.7" font-family="Arial" font-size="14.00">E2B SDKs</text>
<text xml:space="preserve" text-anchor="middle" x="358.1" y="-531.2" font-family="Arial" font-size="14.00">(Python &amp; JS)</text>
</g>
<!-- User_Developer&#45;&gt;E2B_SDKs -->
<g id="edge3" class="edge">
<title>User_Developer&#45;&gt;E2B_SDKs</title>
<path fill="none" stroke="#333333" stroke-width="2" d="M358.1,-757.63C358.1,-757.63 358.1,-580.91 358.1,-580.91"/>
<polygon fill="#333333" stroke="#333333" stroke-width="2" points="360.9,-580.91 358.1,-572.91 355.3,-580.91 360.9,-580.91"/>
</g>
<!-- E2B_Control_Plane -->
<g id="node5" class="node">
<title>E2B_Control_Plane</title>
<polygon fill="lightblue" stroke="black" points="443.45,-327.4 272.75,-327.4 272.75,-277.6 443.45,-277.6 443.45,-327.4"/>
<text xml:space="preserve" text-anchor="middle" x="358.1" y="-299.7" font-family="Arial" font-size="14.00">E2B Control Plane</text>
<text xml:space="preserve" text-anchor="middle" x="358.1" y="-289.2" font-family="Arial" font-size="14.00">(API &amp; Registry)</text>
</g>
<!-- E2B_CLI&#45;&gt;E2B_Control_Plane -->
<g id="edge4" class="edge">
<title>E2B_CLI&#45;&gt;E2B_Control_Plane</title>
<path fill="none" stroke="#333333" stroke-width="2" d="M488.93,-548.5C488.93,-548.5 432.2,-548.5 432.2,-548.5 432.2,-548.5 432.2,-338.93 432.2,-338.93"/>
<polygon fill="#333333" stroke="#333333" stroke-width="2" points="488.93,-551.3 496.93,-548.5 488.93,-545.7 488.93,-551.3"/>
<polygon fill="#333333" stroke="#333333" stroke-width="2" points="435,-338.93 432.2,-330.93 429.4,-338.93 435,-338.93"/>
</g>
<!-- Project_Artifacts -->
<g id="node6" class="node">
<title>Project_Artifacts</title>
<polygon fill="lightblue" stroke="black" points="465.95,-86.4 250.25,-86.4 250.25,-36.6 465.95,-36.6 465.95,-86.4"/>
<text xml:space="preserve" text-anchor="middle" x="358.1" y="-58.7" font-family="Arial" font-size="14.00">Project Artifacts</text>
<text xml:space="preserve" text-anchor="middle" x="358.1" y="-48.2" font-family="Arial" font-size="14.00">(OpenAPI, Config, Docs)</text>
</g>
<!-- E2B_CLI&#45;&gt;Project_Artifacts -->
<g id="edge5" class="edge">
<title>E2B_CLI&#45;&gt;Project_Artifacts</title>
<path fill="none" stroke="#333333" stroke-width="2" d="M488.78,-540.5C488.78,-540.5 450.95,-540.5 450.95,-540.5 450.95,-540.5 450.95,-97.61 450.95,-97.61"/>
<polygon fill="#333333" stroke="#333333" stroke-width="2" points="488.78,-543.3 496.78,-540.5 488.78,-537.7 488.78,-543.3"/>
<polygon fill="#333333" stroke="#333333" stroke-width="2" points="453.75,-97.61 450.95,-89.61 448.15,-97.61 453.75,-97.61"/>
</g>
<!-- E2B_Web_Application&#45;&gt;E2B_Control_Plane -->
<g id="edge6" class="edge">
<title>E2B_Web_Application&#45;&gt;E2B_Control_Plane</title>
<path fill="none" stroke="#333333" stroke-width="2" d="M227.36,-540.5C227.36,-540.5 280.25,-540.5 280.25,-540.5 280.25,-540.5 280.25,-338.55 280.25,-338.55"/>
<polygon fill="#333333" stroke="#333333" stroke-width="2" points="227.36,-537.7 219.36,-540.5 227.36,-543.3 227.36,-537.7"/>
<polygon fill="#333333" stroke="#333333" stroke-width="2" points="283.05,-338.55 280.25,-330.55 277.45,-338.55 283.05,-338.55"/>
</g>
<!-- E2B_Web_Application&#45;&gt;Project_Artifacts -->
<g id="edge7" class="edge">
<title>E2B_Web_Application&#45;&gt;Project_Artifacts</title>
<path fill="none" stroke="#333333" stroke-width="2" d="M227.21,-532.5C227.21,-532.5 261.5,-532.5 261.5,-532.5 261.5,-532.5 261.5,-97.85 261.5,-97.85"/>
<polygon fill="#333333" stroke="#333333" stroke-width="2" points="227.21,-529.7 219.21,-532.5 227.21,-535.3 227.21,-529.7"/>
<polygon fill="#333333" stroke="#333333" stroke-width="2" points="264.3,-97.85 261.5,-89.85 258.7,-97.85 264.3,-97.85"/>
</g>
<!-- E2B_SDKs&#45;&gt;E2B_Control_Plane -->
<g id="edge8" class="edge">
<title>E2B_SDKs&#45;&gt;E2B_Control_Plane</title>
<path fill="none" stroke="#333333" stroke-width="2" d="M358.1,-508.49C358.1,-508.49 358.1,-338.74 358.1,-338.74"/>
<polygon fill="#333333" stroke="#333333" stroke-width="2" points="355.3,-508.49 358.1,-516.49 360.9,-508.49 355.3,-508.49"/>
<polygon fill="#333333" stroke="#333333" stroke-width="2" points="360.9,-338.74 358.1,-330.74 355.3,-338.74 360.9,-338.74"/>
</g>
<!-- E2B_Cloud_Sandboxes -->
<g id="node7" class="node">
<title>E2B_Cloud_Sandboxes</title>
<polygon fill="lightblue" stroke="black" points="700.95,-327.4 515.25,-327.4 515.25,-277.6 700.95,-277.6 700.95,-327.4"/>
<text xml:space="preserve" text-anchor="middle" x="608.1" y="-299.7" font-family="Arial" font-size="14.00">E2B Cloud Sandboxes</text>
<text xml:space="preserve" text-anchor="middle" x="608.1" y="-289.2" font-family="Arial" font-size="14.00">(ENVD)</text>
</g>
<!-- E2B_SDKs&#45;&gt;E2B_Cloud_Sandboxes -->
<g id="edge9" class="edge">
<title>E2B_SDKs&#45;&gt;E2B_Cloud_Sandboxes</title>
<path fill="none" stroke="#333333" stroke-width="2" d="M439.91,-532.5C439.91,-532.5 458.45,-532.5 458.45,-532.5 458.45,-532.5 458.45,-314.5 458.45,-314.5 458.45,-314.5 504,-314.5 504,-314.5"/>
<polygon fill="#333333" stroke="#333333" stroke-width="2" points="439.91,-529.7 431.91,-532.5 439.91,-535.3 439.91,-529.7"/>
<polygon fill="#333333" stroke="#333333" stroke-width="2" points="504,-317.3 512,-314.5 504,-311.7 504,-317.3"/>
</g>
<!-- E2B_Control_Plane&#45;&gt;Project_Artifacts -->
<g id="edge12" class="edge">
<title>E2B_Control_Plane&#45;&gt;Project_Artifacts</title>
<path fill="none" stroke="#333333" stroke-width="2" d="M358.1,-266.14C358.1,-266.14 358.1,-97.88 358.1,-97.88"/>
<polygon fill="#333333" stroke="#333333" stroke-width="2" points="355.3,-266.14 358.1,-274.14 360.9,-266.14 355.3,-266.14"/>
<polygon fill="#333333" stroke="#333333" stroke-width="2" points="360.9,-97.88 358.1,-89.88 355.3,-97.88 360.9,-97.88"/>
</g>
<!-- E2B_Control_Plane&#45;&gt;E2B_Cloud_Sandboxes -->
<g id="edge10" class="edge">
<title>E2B_Control_Plane&#45;&gt;E2B_Cloud_Sandboxes</title>
<path fill="none" stroke="#333333" stroke-width="2" d="M454.81,-302.5C454.81,-302.5 503.8,-302.5 503.8,-302.5"/>
<polygon fill="#333333" stroke="#333333" stroke-width="2" points="454.81,-299.7 446.81,-302.5 454.81,-305.3 454.81,-299.7"/>
<polygon fill="#333333" stroke="#333333" stroke-width="2" points="503.8,-305.3 511.8,-302.5 503.8,-299.7 503.8,-305.3"/>
</g>
<!-- External_Integrations -->
<g id="node8" class="node">
<title>External_Integrations</title>
<polygon fill="lightblue" stroke="black" points="783.95,-86.4 538.25,-86.4 538.25,-36.6 783.95,-36.6 783.95,-86.4"/>
<text xml:space="preserve" text-anchor="middle" x="661.1" y="-58.7" font-family="Arial" font-size="14.00">External Integrations</text>
<text xml:space="preserve" text-anchor="middle" x="661.1" y="-48.2" font-family="Arial" font-size="14.00">(Git, Loops, Slack, Docker)</text>
</g>
<!-- E2B_Control_Plane&#45;&gt;External_Integrations -->
<g id="edge11" class="edge">
<title>E2B_Control_Plane&#45;&gt;External_Integrations</title>
<path fill="none" stroke="#333333" stroke-width="2" d="M454.88,-290.5C454.88,-290.5 507.75,-290.5 507.75,-290.5 507.75,-290.5 507.75,-61.5 507.75,-61.5 507.75,-61.5 527.02,-61.5 527.02,-61.5"/>
<polygon fill="#333333" stroke="#333333" stroke-width="2" points="454.88,-287.7 446.88,-290.5 454.88,-293.3 454.88,-287.7"/>
<polygon fill="#333333" stroke="#333333" stroke-width="2" points="527.02,-64.3 535.02,-61.5 527.02,-58.7 527.02,-64.3"/>
</g>
<!-- E2B_Cloud_Sandboxes&#45;&gt;External_Integrations -->
<g id="edge13" class="edge">
<title>E2B_Cloud_Sandboxes&#45;&gt;External_Integrations</title>
<path fill="none" stroke="#333333" stroke-width="2" d="M619.6,-266.14C619.6,-266.14 619.6,-97.88 619.6,-97.88"/>
<polygon fill="#333333" stroke="#333333" stroke-width="2" points="616.8,-266.14 619.6,-274.14 622.4,-266.14 616.8,-266.14"/>
<polygon fill="#333333" stroke="#333333" stroke-width="2" points="622.4,-97.88 619.6,-89.88 616.8,-97.88 622.4,-97.88"/>
</g>
<!-- CI_CD_Automation -->
<g id="node9" class="node">
<title>CI_CD_Automation</title>
<polygon fill="lightblue" stroke="black" points="178.2,-81.15 0,-81.15 0,-41.85 178.2,-41.85 178.2,-81.15"/>
<text xml:space="preserve" text-anchor="middle" x="89.1" y="-53.45" font-family="Arial" font-size="14.00">CI/CD &amp; Automation</text>
</g>
<!-- CI_CD_Automation&#45;&gt;E2B_SDKs -->
<g id="edge15" class="edge">
<title>CI_CD_Automation&#45;&gt;E2B_SDKs</title>
<path fill="none" stroke="#333333" stroke-width="2" d="M178.66,-68.5C207.94,-68.5 233.1,-68.5 233.1,-68.5 233.1,-68.5 233.1,-548.5 233.1,-548.5 233.1,-548.5 276.54,-548.5 276.54,-548.5"/>
<polygon fill="#333333" stroke="#333333" stroke-width="2" points="276.54,-551.3 284.54,-548.5 276.54,-545.7 276.54,-551.3"/>
</g>
<!-- CI_CD_Automation&#45;&gt;E2B_Control_Plane -->
<g id="edge16" class="edge">
<title>CI_CD_Automation&#45;&gt;E2B_Control_Plane</title>
<path fill="none" stroke="#333333" stroke-width="2" d="M104.22,-81.63C104.22,-139.55 104.22,-302.5 104.22,-302.5 104.22,-302.5 261.48,-302.5 261.48,-302.5"/>
<polygon fill="#333333" stroke="#333333" stroke-width="2" points="261.48,-305.3 269.48,-302.5 261.48,-299.7 261.48,-305.3"/>
</g>
<!-- CI_CD_Automation&#45;&gt;Project_Artifacts -->
<g id="edge14" class="edge">
<title>CI_CD_Automation&#45;&gt;Project_Artifacts</title>
<path fill="none" stroke="#333333" stroke-width="2" d="M189.7,-54.5C189.7,-54.5 238.73,-54.5 238.73,-54.5"/>
<polygon fill="#333333" stroke="#333333" stroke-width="2" points="189.7,-51.7 181.7,-54.5 189.7,-57.3 189.7,-51.7"/>
<polygon fill="#333333" stroke="#333333" stroke-width="2" points="238.73,-57.3 246.73,-54.5 238.73,-51.7 238.73,-57.3"/>
</g>
<!-- CI_CD_Automation&#45;&gt;External_Integrations -->
<g id="edge17" class="edge">
<title>CI_CD_Automation&#45;&gt;External_Integrations</title>
<path fill="none" stroke="#333333" stroke-width="2" d="M89.1,-30.48C89.1,-30.48 89.1,-18.5 89.1,-18.5 89.1,-18.5 661.1,-18.5 661.1,-18.5 661.1,-18.5 661.1,-25.46 661.1,-25.46"/>
<polygon fill="#333333" stroke="#333333" stroke-width="2" points="86.3,-30.48 89.1,-38.48 91.9,-30.48 86.3,-30.48"/>
<polygon fill="#333333" stroke="#333333" stroke-width="2" points="658.3,-25.46 661.1,-33.46 663.9,-25.46 658.3,-25.46"/>
</g>
</g>
</svg>
